<svg width="41" height="41" viewBox="0 0 41 41" fill="none" xmlns="http://www.w3.org/2000/svg">
<path fill-rule="evenodd" clip-rule="evenodd" d="M2.62573 20.7601C2.62573 20.4286 2.75743 20.1107 2.99185 19.8762C3.22627 19.6418 3.54421 19.5101 3.87573 19.5101H33.3582L25.4907 11.6451C25.256 11.4104 25.1242 11.0921 25.1242 10.7601C25.1242 10.4282 25.256 10.1098 25.4907 9.87512C25.7254 9.64041 26.0438 9.50854 26.3757 9.50854C26.7077 9.50854 27.026 9.64041 27.2607 9.87512L37.2607 19.8751C37.3771 19.9912 37.4695 20.1292 37.5325 20.281C37.5955 20.4329 37.628 20.5957 37.628 20.7601C37.628 20.9245 37.5955 21.0873 37.5325 21.2392C37.4695 21.3911 37.3771 21.529 37.2607 21.6451L27.2607 31.6451C27.026 31.8798 26.7077 32.0117 26.3757 32.0117C26.0438 32.0117 25.7254 31.8798 25.4907 31.6451C25.256 31.4104 25.1242 31.0921 25.1242 30.7601C25.1242 30.4282 25.256 30.1098 25.4907 29.8751L33.3582 22.0101H3.87573C3.54421 22.0101 3.22627 21.8784 2.99185 21.644C2.75743 21.4096 2.62573 21.0916 2.62573 20.7601Z" fill="#F8F8F8"/>
</svg>
